<svg width="103" height="47" viewBox="0 0 103 47" fill="none" xmlns="http://www.w3.org/2000/svg">
<path d="M0 0H79.5C92.4787 0 103 10.5213 103 23.5V23.5C103 36.4787 92.4787 47 79.5 47H0V0Z" fill="white"/>
<path d="M62.9999 38.1668C55.1757 38.1668 48.8333 31.8244 48.8333 24.0002C48.8333 16.1759 55.1757 9.8335 62.9999 9.8335C70.8242 9.8335 77.1666 16.1759 77.1666 24.0002C77.1666 31.8244 70.8242 38.1668 62.9999 38.1668ZM69.8283 31.1912C71.5383 29.5703 72.6154 27.3935 72.8665 25.0508C73.1177 22.708 72.5265 20.3524 71.1988 18.4059C69.8711 16.4594 67.8938 15.0492 65.621 14.428C63.3482 13.8068 60.9284 14.0151 58.7953 15.0157L60.1765 17.5019C61.2545 17.0334 62.4321 16.8405 63.6032 16.9406C64.7743 17.0407 65.9021 17.4307 66.885 18.0754C67.8678 18.72 68.6747 19.5992 69.2331 20.6335C69.7914 21.6678 70.0836 22.8248 70.0833 24.0002H65.8333L69.8283 31.1912ZM67.2046 32.9847L65.8233 30.4984C64.7454 30.9669 63.5677 31.1598 62.3966 31.0597C61.2255 30.9596 60.0977 30.5696 59.1149 29.925C58.1321 29.2803 57.3251 28.4012 56.7668 27.3669C56.2084 26.3325 55.9163 25.1756 55.9166 24.0002H60.1666L56.1716 16.8092C54.4615 18.43 53.3844 20.6068 53.1333 22.9496C52.8822 25.2923 53.4734 27.6479 54.8011 29.5944C56.1287 31.5409 58.1061 32.9511 60.3789 33.5723C62.6517 34.1935 65.0714 33.9852 67.2046 32.9847V32.9847Z" fill="#00468C"/>
</svg>
