<svg width="34" height="34" viewBox="0 0 34 34" fill="none" xmlns="http://www.w3.org/2000/svg">
<g id="Icon vendor">
<path id="Vector" d="M16.9997 15.583C18.8783 15.583 20.68 16.3293 22.0083 17.6577C23.3367 18.9861 24.083 20.7877 24.083 22.6663V31.1663H9.91634V22.6663C9.91634 20.7877 10.6626 18.9861 11.991 17.6577C13.3194 16.3293 15.1211 15.583 16.9997 15.583ZM7.49101 19.8415C7.26556 20.602 7.13238 21.3868 7.09434 22.179L7.08301 22.6663V31.1663H2.83301V24.7913C2.83273 23.5696 3.28355 22.3907 4.09899 21.4809C4.91443 20.5711 6.03708 19.9943 7.25159 19.8613L7.49242 19.8415H7.49101ZM26.5083 19.8415C27.769 19.9184 28.9529 20.4733 29.8185 21.3931C30.6841 22.3129 31.1662 23.5283 31.1663 24.7913V31.1663H26.9163V22.6663C26.9163 21.6846 26.7747 20.7368 26.5083 19.8415ZM7.79134 11.333C8.73065 11.333 9.63149 11.7061 10.2957 12.3703C10.9599 13.0345 11.333 13.9354 11.333 14.8747C11.333 15.814 10.9599 16.7148 10.2957 17.379C9.63149 18.0432 8.73065 18.4163 7.79134 18.4163C6.85203 18.4163 5.9512 18.0432 5.287 17.379C4.62281 16.7148 4.24967 15.814 4.24967 14.8747C4.24967 13.9354 4.62281 13.0345 5.287 12.3703C5.9512 11.7061 6.85203 11.333 7.79134 11.333ZM26.208 11.333C27.1473 11.333 28.0482 11.7061 28.7123 12.3703C29.3765 13.0345 29.7497 13.9354 29.7497 14.8747C29.7497 15.814 29.3765 16.7148 28.7123 17.379C28.0482 18.0432 27.1473 18.4163 26.208 18.4163C25.2687 18.4163 24.3679 18.0432 23.7037 17.379C23.0395 16.7148 22.6663 15.814 22.6663 14.8747C22.6663 13.9354 23.0395 13.0345 23.7037 12.3703C24.3679 11.7061 25.2687 11.333 26.208 11.333ZM16.9997 2.83301C18.5026 2.83301 19.9439 3.43003 21.0066 4.49274C22.0693 5.55544 22.6663 6.99678 22.6663 8.49967C22.6663 10.0026 22.0693 11.4439 21.0066 12.5066C19.9439 13.5693 18.5026 14.1663 16.9997 14.1663C15.4968 14.1663 14.0554 13.5693 12.9927 12.5066C11.93 11.4439 11.333 10.0026 11.333 8.49967C11.333 6.99678 11.93 5.55544 12.9927 4.49274C14.0554 3.43003 15.4968 2.83301 16.9997 2.83301Z" fill="black"/>
</g>
</svg>
