<svg width="34" height="34" viewBox="0 0 34 34" fill="none" xmlns="http://www.w3.org/2000/svg">
<path d="M15.5835 0.769413C16.051 0.728329 16.5227 0.708496 17.0002 0.708496C25.9974 0.708496 33.2918 8.00291 33.2918 17.0002C33.2918 17.4776 33.272 17.9493 33.2309 18.4168H31.0974C30.3862 25.5752 24.3456 31.1668 17.0002 31.1668C9.17591 31.1668 2.8335 24.8244 2.8335 17.0002C2.8335 9.65475 8.42508 3.61408 15.5835 2.90433V0.767996V0.769413ZM15.5835 18.4168V5.75466C12.7257 6.1183 10.1135 7.55648 8.27801 9.77689C6.44249 11.9973 5.52131 14.8333 5.70171 17.7085C5.88211 20.5838 7.15055 23.2824 9.24922 25.256C11.3479 27.2295 14.1193 28.3299 17.0002 28.3335C19.7607 28.3335 22.4263 27.326 24.4968 25.5002C26.5673 23.6743 27.9003 21.1557 28.2457 18.4168H15.5835ZM30.3848 15.5835C30.0601 12.5205 28.6948 9.66154 26.5168 7.48355C24.3388 5.30555 21.4798 3.94028 18.4168 3.6155V15.5835H30.3848Z" fill="white"/>
</svg>
