<svg width="103" height="47" viewBox="0 0 103 47" fill="none" xmlns="http://www.w3.org/2000/svg">
<path d="M0 0H79.5C92.4787 0 103 10.5213 103 23.5V23.5C103 36.4787 92.4787 47 79.5 47H0V0Z" fill="white"/>
<path d="M75.75 35.3332C75.75 35.709 75.6007 36.0693 75.3351 36.335C75.0694 36.6006 74.7091 36.7499 74.3333 36.7499H51.6667C51.2909 36.7499 50.9306 36.6006 50.6649 36.335C50.3993 36.0693 50.25 35.709 50.25 35.3332V20.4441C50.2499 20.2282 50.299 20.0151 50.3938 19.8212C50.4886 19.6272 50.6264 19.4574 50.7968 19.3249L62.1302 10.5104C62.3789 10.3169 62.6849 10.2119 63 10.2119C63.3151 10.2119 63.6211 10.3169 63.8698 10.5104L75.2032 19.3249C75.3736 19.4574 75.5114 19.6272 75.6062 19.8212C75.701 20.0151 75.7501 20.2282 75.75 20.4441V35.3332V35.3332ZM61.5833 25.4166V33.9166H64.4167V25.4166H61.5833Z" fill="#00468C"/>
</svg>
