<svg width="34" height="34" viewBox="0 0 34 34" fill="none" xmlns="http://www.w3.org/2000/svg">
<g id="icon update shipment-assign DO">
<path id="Vector" d="M16.9997 31.1663C9.17543 31.1663 2.83301 24.8239 2.83301 16.9997C2.83301 9.17543 9.17543 2.83301 16.9997 2.83301C24.8239 2.83301 31.1663 9.17543 31.1663 16.9997C31.1663 24.8239 24.8239 31.1663 16.9997 31.1663ZM23.828 24.1907C25.6334 22.4728 26.7258 20.1382 26.8879 17.6514C27.0499 15.1646 26.2697 12.7079 24.7026 10.7703C23.1354 8.83267 20.8961 7.55613 18.4304 7.19471C15.9647 6.83329 13.4532 7.41349 11.3959 8.81985C9.33857 10.2262 7.88617 12.3556 7.32772 14.7843C6.76927 17.213 7.14573 19.763 8.38217 21.9267C9.61861 24.0904 11.6244 25.7093 14.0003 26.4611C16.3763 27.213 18.9482 27.0427 21.2043 25.9842L19.8231 23.4979C18.4247 24.1057 16.8675 24.246 15.383 23.898C13.8984 23.55 12.5658 22.7322 11.5832 21.5662C10.6006 20.4003 10.0205 18.9484 9.92909 17.4263C9.83766 15.9043 10.2398 14.3934 11.0758 13.1182C11.9117 11.843 13.1368 10.8716 14.569 10.3484C16.0012 9.82516 17.564 9.77805 19.0251 10.2141C20.4862 10.6501 21.7677 11.5459 22.6789 12.7684C23.5902 13.991 24.0826 15.4749 24.083 16.9997H19.833L23.828 24.1907Z" fill="black"/>
</g>
</svg>
