<svg width="103" height="47" viewBox="0 0 103 47" fill="none" xmlns="http://www.w3.org/2000/svg">
<path d="M0 0H79.5C92.4787 0 103 10.5213 103 23.5V23.5C103 36.4787 92.4787 47 79.5 47H0V0Z" fill="white"/>
<path d="M51.0204 26.3092C50.7663 24.7803 50.7663 23.2199 51.0204 21.6909C52.5816 21.7277 53.9841 20.9797 54.5295 19.6637C55.0749 18.3462 54.6117 16.8247 53.4812 15.7494C54.3828 14.4876 55.4866 13.3833 56.748 12.4812C57.8247 13.6117 59.3462 14.0749 60.6637 13.5295C61.9812 12.9841 62.7278 11.5802 62.6895 10.0204C64.2194 9.76598 65.7808 9.76598 67.3107 10.0204C67.2724 11.5816 68.0204 12.9841 69.3365 13.5295C70.654 14.0749 72.1755 13.6117 73.2507 12.4812C74.5126 13.3827 75.6169 14.4865 76.519 15.748C75.3885 16.8247 74.9253 18.3462 75.4707 19.6637C76.0161 20.9812 77.42 21.7277 78.9797 21.6895C79.2342 23.2194 79.2342 24.7808 78.9797 26.3107C77.4186 26.2724 76.0161 27.0204 75.4707 28.3365C74.9253 29.654 75.3885 31.1755 76.519 32.2507C75.6174 33.5126 74.5136 34.6169 73.2522 35.519C72.1755 34.3885 70.654 33.9252 69.3365 34.4707C68.019 35.0161 67.2724 36.42 67.3107 37.9797C65.7808 38.2342 64.2194 38.2342 62.6895 37.9797C62.7278 36.4186 61.9798 35.0161 60.6637 34.4707C59.3462 33.9252 57.8247 34.3885 56.7494 35.519C55.4876 34.6174 54.3833 33.5136 53.4812 32.2522C54.6117 31.1755 55.0749 29.654 54.5295 28.3365C53.9841 27.019 52.5802 26.2724 51.0204 26.3107V26.3092ZM65.0001 28.2501C66.1273 28.2501 67.2083 27.8023 68.0053 27.0053C68.8023 26.2083 69.2501 25.1272 69.2501 24.0001C69.2501 22.8729 68.8023 21.7919 68.0053 20.9949C67.2083 20.1978 66.1273 19.7501 65.0001 19.7501C63.8729 19.7501 62.7919 20.1978 61.9949 20.9949C61.1978 21.7919 60.7501 22.8729 60.7501 24.0001C60.7501 25.1272 61.1978 26.2083 61.9949 27.0053C62.7919 27.8023 63.8729 28.2501 65.0001 28.2501V28.2501Z" fill="#00468C"/>
</svg>
