<svg width="34" height="34" viewBox="0 0 34 34" fill="none" xmlns="http://www.w3.org/2000/svg">
<path d="M3.13515 19.9184C2.72774 17.9942 2.72774 16.006 3.13515 14.0817C4.70765 14.2659 6.08182 13.746 6.52949 12.6637C6.97857 11.5799 6.37649 10.2412 5.13265 9.2594C6.20513 7.61087 7.61087 6.20513 9.2594 5.13265C10.2397 6.37507 11.5799 6.97857 12.6637 6.52949C13.7474 6.0804 14.2673 4.70765 14.0817 3.13515C16.006 2.72774 17.9942 2.72774 19.9184 3.13515C19.7342 4.70765 20.2542 6.08182 21.3365 6.52949C22.4202 6.97857 23.759 6.37649 24.7407 5.13265C26.3893 6.20513 27.795 7.61087 28.8675 9.2594C27.6251 10.2397 27.0216 11.5799 27.4707 12.6637C27.9197 13.7474 29.2925 14.2673 30.865 14.0817C31.2724 16.006 31.2724 17.9942 30.865 19.9184C29.2925 19.7342 27.9183 20.2542 27.4707 21.3365C27.0216 22.4202 27.6237 23.759 28.8675 24.7407C27.795 26.3893 26.3893 27.795 24.7407 28.8675C23.7604 27.6251 22.4202 27.0216 21.3365 27.4707C20.2527 27.9197 19.7328 29.2925 19.9184 30.865C17.9942 31.2724 16.006 31.2724 14.0817 30.865C14.2659 29.2925 13.746 27.9183 12.6637 27.4707C11.5799 27.0216 10.2412 27.6237 9.2594 28.8675C7.61087 27.795 6.20513 26.3893 5.13265 24.7407C6.37507 23.7604 6.97857 22.4202 6.52949 21.3365C6.0804 20.2527 4.70765 19.7328 3.13515 19.9184V19.9184ZM5.66674 17.2976C7.22507 17.7297 8.50999 18.7171 9.14749 20.2527C9.78357 21.7898 9.57249 23.3977 8.77632 24.8031C8.91232 24.9476 9.05257 25.0878 9.19707 25.2238C10.6038 24.4277 12.2103 24.218 13.7474 24.8527C15.2831 25.4902 16.2705 26.7751 16.7026 28.3334C16.9009 28.3391 17.0992 28.3391 17.2976 28.3334C17.7297 26.7751 18.7171 25.4902 20.2527 24.8527C21.7898 24.2166 23.3977 24.4277 24.8031 25.2238C24.9476 25.0878 25.0878 24.9476 25.2238 24.8031C24.4277 23.3963 24.218 21.7898 24.8527 20.2527C25.4902 18.7171 26.7751 17.7297 28.3334 17.2976C28.3391 17.0992 28.3391 16.9009 28.3334 16.7026C26.7751 16.2705 25.4902 15.2831 24.8527 13.7474C24.2166 12.2103 24.4277 10.6024 25.2238 9.19707C25.0873 9.05313 24.947 8.91283 24.8031 8.77632C23.3963 9.57249 21.7898 9.78215 20.2527 9.14749C18.7171 8.50999 17.7297 7.22507 17.2976 5.66674C17.0993 5.66149 16.9009 5.66149 16.7026 5.66674C16.2705 7.22507 15.2831 8.50999 13.7474 9.14749C12.2103 9.78357 10.6024 9.57249 9.19707 8.77632C9.05257 8.91232 8.91232 9.05257 8.77632 9.19707C9.57249 10.6038 9.78215 12.2103 9.14749 13.7474C8.50999 15.2831 7.22507 16.2705 5.66674 16.7026C5.66107 16.9009 5.66107 17.0992 5.66674 17.2976V17.2976ZM17.0001 21.2501C15.8729 21.2501 14.7919 20.8023 13.9949 20.0053C13.1978 19.2082 12.7501 18.1272 12.7501 17.0001C12.7501 15.8729 13.1978 14.7919 13.9949 13.9949C14.7919 13.1978 15.8729 12.7501 17.0001 12.7501C18.1272 12.7501 19.2082 13.1978 20.0053 13.9949C20.8023 14.7919 21.2501 15.8729 21.2501 17.0001C21.2501 18.1272 20.8023 19.2082 20.0053 20.0053C19.2082 20.8023 18.1272 21.2501 17.0001 21.2501ZM17.0001 18.4167C17.3758 18.4167 17.7361 18.2675 18.0018 18.0018C18.2675 17.7361 18.4167 17.3758 18.4167 17.0001C18.4167 16.6243 18.2675 16.264 18.0018 15.9983C17.7361 15.7327 17.3758 15.5834 17.0001 15.5834C16.6243 15.5834 16.264 15.7327 15.9983 15.9983C15.7327 16.264 15.5834 16.6243 15.5834 17.0001C15.5834 17.3758 15.7327 17.7361 15.9983 18.0018C16.264 18.2675 16.6243 18.4167 17.0001 18.4167V18.4167Z" fill="white"/>
</svg>
