<svg width="34" height="34" viewBox="0 0 34 34" fill="none" xmlns="http://www.w3.org/2000/svg">
<g id="Icon delivery order">
<path id="Vector" d="M5.66652 9.08667L1.07227 4.49384L3.07685 2.48926L7.66968 7.08351H29.2625C29.4833 7.08349 29.7011 7.13509 29.8984 7.23419C30.0957 7.33329 30.2672 7.47715 30.399 7.65428C30.5309 7.8314 30.6195 8.0369 30.6578 8.25436C30.6961 8.47183 30.6831 8.69524 30.6197 8.90676L27.2197 20.2401C27.1322 20.532 26.9529 20.788 26.7084 20.97C26.4639 21.1519 26.1673 21.2502 25.8625 21.2502H8.49985V24.0835H24.0832V26.9168H7.08318C6.70746 26.9168 6.34712 26.7676 6.08145 26.5019C5.81577 26.2362 5.66652 25.8759 5.66652 25.5002V9.08667ZM7.79152 32.5835C7.22793 32.5835 6.68743 32.3596 6.28891 31.9611C5.8904 31.5626 5.66652 31.0221 5.66652 30.4585C5.66652 29.8949 5.8904 29.3544 6.28891 28.9559C6.68743 28.5574 7.22793 28.3335 7.79152 28.3335C8.3551 28.3335 8.8956 28.5574 9.29412 28.9559C9.69263 29.3544 9.91652 29.8949 9.91652 30.4585C9.91652 31.0221 9.69263 31.5626 9.29412 31.9611C8.8956 32.3596 8.3551 32.5835 7.79152 32.5835ZM24.7915 32.5835C24.2279 32.5835 23.6874 32.3596 23.2889 31.9611C22.8904 31.5626 22.6665 31.0221 22.6665 30.4585C22.6665 29.8949 22.8904 29.3544 23.2889 28.9559C23.6874 28.5574 24.2279 28.3335 24.7915 28.3335C25.3551 28.3335 25.8956 28.5574 26.2941 28.9559C26.6926 29.3544 26.9165 29.8949 26.9165 30.4585C26.9165 31.0221 26.6926 31.5626 26.2941 31.9611C25.8956 32.3596 25.3551 32.5835 24.7915 32.5835Z" fill="black"/>
</g>
</svg>
