<svg width="34" height="34" viewBox="0 0 34 34" fill="none" xmlns="http://www.w3.org/2000/svg">
<path d="M21.25 5.66683H7.08333V28.3335H26.9167V11.3335H21.25V5.66683ZM4.25 4.23883C4.25 3.4625 4.88325 2.8335 5.66525 2.8335H22.6667L29.75 9.91683V29.7402C29.7513 29.9263 29.716 30.1108 29.646 30.2831C29.576 30.4555 29.4727 30.6124 29.3421 30.7449C29.2115 30.8774 29.056 30.9828 28.8846 31.0552C28.7133 31.1276 28.5293 31.1655 28.3433 31.1668H5.65675C5.2847 31.1642 4.92861 31.0154 4.66539 30.7524C4.40218 30.4895 4.25297 30.1335 4.25 29.7615V4.23883ZM17 16.2918C16.0607 16.2918 15.1599 15.9187 14.4957 15.2545C13.8315 14.5903 13.4583 13.6895 13.4583 12.7502C13.4583 11.8109 13.8315 10.91 14.4957 10.2458C15.1599 9.58164 16.0607 9.2085 17 9.2085C17.9393 9.2085 18.8401 9.58164 19.5043 10.2458C20.1685 10.91 20.5417 11.8109 20.5417 12.7502C20.5417 13.6895 20.1685 14.5903 19.5043 15.2545C18.8401 15.9187 17.9393 16.2918 17 16.2918V16.2918ZM10.6633 24.0835C10.835 22.5229 11.5766 21.0806 12.7459 20.0329C13.9152 18.9852 15.43 18.4058 17 18.4058C18.57 18.4058 20.0848 18.9852 21.2541 20.0329C22.4234 21.0806 23.165 22.5229 23.3368 24.0835H10.6633Z" fill="white"/>
</svg>
