<svg width="34" height="34" viewBox="0 0 34 34" fill="none" xmlns="http://www.w3.org/2000/svg">
<g id="icon good recipt PO STO">
<path id="Vector" d="M26.9173 31.1663H7.08398C5.95681 31.1663 4.87581 30.7186 4.07878 29.9215C3.28175 29.1245 2.83398 28.0435 2.83398 26.9163V4.24967C2.83398 3.87395 2.98324 3.51362 3.24892 3.24794C3.51459 2.98226 3.87493 2.83301 4.25065 2.83301H24.084C24.4597 2.83301 24.82 2.98226 25.0857 3.24794C25.3514 3.51362 25.5007 3.87395 25.5007 4.24967V21.2497H31.1673V26.9163C31.1673 28.0435 30.7196 29.1245 29.9225 29.9215C29.1255 30.7186 28.0445 31.1663 26.9173 31.1663ZM25.5007 24.083V26.9163C25.5007 27.2921 25.6499 27.6524 25.9156 27.9181C26.1813 28.1838 26.5416 28.333 26.9173 28.333C27.293 28.333 27.6534 28.1838 27.9191 27.9181C28.1847 27.6524 28.334 27.2921 28.334 26.9163V24.083H25.5007ZM8.50065 9.91634V12.7497H19.834V9.91634H8.50065ZM8.50065 15.583V18.4163H19.834V15.583H8.50065ZM8.50065 21.2497V24.083H15.584V21.2497H8.50065Z" fill="black"/>
</g>
</svg>
