<svg width="103" height="47" viewBox="0 0 103 47" fill="none" xmlns="http://www.w3.org/2000/svg">
<path d="M0 0H79.5C92.4787 0 103 10.5213 103 23.5V23.5C103 36.4787 92.4787 47 79.5 47H0V0Z" fill="white"/>
<path d="M68.6667 9.8335L75.75 16.9168V36.7615C75.7496 37.1343 75.6012 37.4918 75.3375 37.7553C75.0737 38.0188 74.7161 38.1668 74.3432 38.1668H51.6568C51.2847 38.1642 50.9286 38.0154 50.6654 37.7524C50.4022 37.4895 50.253 37.1335 50.25 36.7615V11.2388C50.25 10.4625 50.8804 9.8335 51.6568 9.8335H68.6667ZM63 23.2918C63.9393 23.2918 64.8401 22.9187 65.5043 22.2545C66.1685 21.5903 66.5417 20.6895 66.5417 19.7502C66.5417 18.8109 66.1685 17.91 65.5043 17.2458C64.8401 16.5816 63.9393 16.2085 63 16.2085C62.0607 16.2085 61.1599 16.5816 60.4957 17.2458C59.8315 17.91 59.4583 18.8109 59.4583 19.7502C59.4583 20.6895 59.8315 21.5903 60.4957 22.2545C61.1599 22.9187 62.0607 23.2918 63 23.2918ZM56.6632 31.0835H69.3367C69.165 29.5229 68.4234 28.0806 67.2541 27.0329C66.0848 25.9852 64.57 25.4058 63 25.4058C61.43 25.4058 59.9152 25.9852 58.7459 27.0329C57.5766 28.0806 56.835 29.5229 56.6632 31.0835V31.0835Z" fill="#00468C"/>
</svg>
