<svg width="34" height="34" viewBox="0 0 34 34" fill="none" xmlns="http://www.w3.org/2000/svg">
<g id="icon POD status">
<path id="Vector" d="M26.2614 27.7196C23.6908 29.9471 20.4021 31.1711 17.0007 31.1663C9.1764 31.1663 2.83398 24.8239 2.83398 16.9997C2.83398 9.17542 9.1764 2.83301 17.0007 2.83301C24.8249 2.83301 31.1673 9.17542 31.1673 16.9997C31.1673 20.0257 30.2182 22.8307 28.6032 25.1313L24.084 16.9997H28.334C28.3338 14.3876 27.4313 11.8558 25.7793 9.8326C24.1272 7.80936 21.827 6.41886 19.2678 5.89635C16.7085 5.37383 14.0474 5.75137 11.7344 6.96509C9.42152 8.17882 7.59883 10.1542 6.57473 12.5571C5.55062 14.96 5.38796 17.6429 6.11426 20.152C6.84057 22.661 8.41125 24.8421 10.5606 26.3264C12.71 27.8106 15.306 28.5069 17.9096 28.2974C20.5133 28.0879 22.9646 26.9855 24.849 25.1767L26.2614 27.7196Z" fill="black"/>
</g>
</svg>
