<svg width="34" height="34" viewBox="0 0 34 34" fill="none" xmlns="http://www.w3.org/2000/svg">
<g id="Icon storage location">
<path id="Vector" d="M26.0157 24.5986L17 33.6142L7.98434 24.5986C6.20124 22.8154 4.98693 20.5436 4.49498 18.0703C4.00303 15.5971 4.25553 13.0335 5.22056 10.7038C6.18558 8.37401 7.81978 6.38274 9.9165 4.98176C12.0132 3.58078 14.4783 2.83301 17 2.83301C19.5217 2.83301 21.9868 3.58078 24.0835 4.98176C26.1802 6.38274 27.8144 8.37401 28.7795 10.7038C29.7445 13.0335 29.997 15.5971 29.505 18.0703C29.0131 20.5436 27.7988 22.8154 26.0157 24.5986ZM17 21.2496C18.5029 21.2496 19.9442 20.6525 21.0069 19.5898C22.0697 18.5271 22.6667 17.0858 22.6667 15.5829C22.6667 14.08 22.0697 12.6387 21.0069 11.576C19.9442 10.5133 18.5029 9.91623 17 9.91623C15.4971 9.91623 14.0558 10.5133 12.9931 11.576C11.9304 12.6387 11.3333 14.08 11.3333 15.5829C11.3333 17.0858 11.9304 18.5271 12.9931 19.5898C14.0558 20.6525 15.4971 21.2496 17 21.2496ZM17 18.4162C16.2486 18.4162 15.5279 18.1177 14.9965 17.5864C14.4652 17.055 14.1667 16.3343 14.1667 15.5829C14.1667 14.8314 14.4652 14.1108 14.9965 13.5794C15.5279 13.0481 16.2486 12.7496 17 12.7496C17.7515 12.7496 18.4721 13.0481 19.0035 13.5794C19.5348 14.1108 19.8333 14.8314 19.8333 15.5829C19.8333 16.3343 19.5348 17.055 19.0035 17.5864C18.4721 18.1177 17.7515 18.4162 17 18.4162Z" fill="black"/>
</g>
</svg>
