<svg width="34" height="34" viewBox="0 0 34 34" fill="none" xmlns="http://www.w3.org/2000/svg">
<path d="M7.73941 6.28026C10.31 4.05278 13.5987 2.82876 17.0002 2.83351C24.8244 2.83351 31.1668 9.17593 31.1668 17.0002C31.1668 20.0262 30.2177 22.8312 28.6027 25.1318L24.0835 17.0002H28.3335C28.3337 14.7783 27.6808 12.6054 26.4559 10.7516C25.2311 8.89785 23.4884 7.44498 21.4445 6.57369C19.4006 5.70239 17.1457 5.45109 14.9601 5.85104C12.7745 6.25098 10.7547 7.28453 9.15183 8.82318L7.73941 6.28026ZM26.2609 27.7201C23.6903 29.9476 20.4016 31.1716 17.0002 31.1668C9.17591 31.1668 2.8335 24.8244 2.8335 17.0002C2.8335 13.9742 3.78266 11.1692 5.39766 8.86851L9.91683 17.0002H5.66683C5.66665 19.222 6.31956 21.395 7.54439 23.2487C8.76922 25.1025 10.5119 26.5554 12.5558 27.4267C14.5997 28.298 16.8547 28.5493 19.0402 28.1493C21.2258 27.7494 23.2456 26.7158 24.8485 25.1772L26.2609 27.7201Z" fill="white"/>
</svg>
