<svg width="34" height="34" viewBox="0 0 34 34" fill="none" xmlns="http://www.w3.org/2000/svg">
<g id="icon good receipt  FG">
<path id="Vector" d="M28.3333 31.1663H5.66667C5.29094 31.1663 4.93061 31.0171 4.66493 30.7514C4.39926 30.4857 4.25 30.1254 4.25 29.7497V4.24967C4.25 3.87395 4.39926 3.51362 4.66493 3.24794C4.93061 2.98226 5.29094 2.83301 5.66667 2.83301H28.3333C28.7091 2.83301 29.0694 2.98226 29.3351 3.24794C29.6007 3.51362 29.75 3.87395 29.75 4.24967V29.7497C29.75 30.1254 29.6007 30.4857 29.3351 30.7514C29.0694 31.0171 28.7091 31.1663 28.3333 31.1663ZM11.3333 9.91634V12.7497H22.6667V9.91634H11.3333ZM11.3333 15.583V18.4163H22.6667V15.583H11.3333ZM11.3333 21.2497V24.083H18.4167V21.2497H11.3333Z" fill="black"/>
</g>
</svg>
