<svg width="52" height="52" viewBox="0 0 52 52" fill="none" xmlns="http://www.w3.org/2000/svg">
<g id="icon profile">
<path id="Vector" opacity="0.18" d="M52 26.0324C51.973 32.9007 49.2148 39.4778 44.3308 44.3202C39.4467 49.1626 32.8359 51.8747 25.9491 51.8612C19.0623 51.8477 12.4622 49.1098 7.59722 44.2483C2.73228 39.3869 0 32.799 0 25.9306C0 19.0622 2.73228 12.4744 7.59722 7.6129C12.4622 2.75144 19.0623 0.0135261 25.9491 4.99823e-05C32.8359 -0.0134261 39.4467 2.69863 44.3308 7.54102C49.2148 12.3834 51.973 18.9605 52 25.8289V26.0324Z" fill="#0039A8"/>
<path id="Vector_2" d="M18.3747 18.8342C18.144 18.6595 17.8624 18.5648 17.5727 18.5645C17.4026 18.5801 17.2393 18.6388 17.0981 18.7348C16.8329 18.9167 16.6184 19.1628 16.4748 19.4501C16.3312 19.7374 16.2632 20.0564 16.2772 20.3771C16.311 21.0227 16.5713 21.6358 17.0127 22.1093C17.1776 22.3157 17.3839 22.4856 17.6184 22.6078C17.853 22.7301 18.1106 22.8021 18.3747 22.8192C18.4674 22.8192 18.5586 22.7964 18.6404 22.7529C18.7103 22.6864 18.7645 22.6051 18.799 22.5151C18.8335 22.425 18.8474 22.3284 18.8397 22.2323C18.8777 21.5319 18.9204 20.8362 18.9583 20.1405C18.9963 19.4447 19.0248 19.2365 18.3747 18.8342Z" fill="#F7AF87"/>
<path id="Vector_3" d="M33.5067 18.8295C33.7389 18.6583 34.0199 18.5655 34.3087 18.5645C34.4783 18.5825 34.641 18.6409 34.7832 18.7348C35.0467 18.9178 35.2593 19.1644 35.4013 19.4516C35.5432 19.7388 35.6097 20.0572 35.5947 20.3771C35.5617 21.0229 35.3012 21.6363 34.8591 22.1093C34.6938 22.3149 34.4873 22.4838 34.2528 22.6052C34.0183 22.7267 33.7609 22.7979 33.4972 22.8144C33.404 22.8189 33.3116 22.7958 33.2315 22.7482C33.1613 22.682 33.1072 22.6007 33.0735 22.5105C33.0397 22.4202 33.0272 22.3234 33.0369 22.2276C32.9942 21.5319 32.9562 20.8078 32.9183 20.1357C32.8803 19.4637 32.8756 19.2365 33.5067 18.8295Z" fill="#F7AF87"/>
<path id="Vector_4" d="M44.264 43.7469V44.49C39.3794 49.3064 32.7861 52.0053 25.9172 51.9999C19.0483 51.9946 12.4591 49.2855 7.58203 44.4616V41.5509C7.58203 41.5509 9.8788 32.9752 17.8226 32.005C25.7664 31.0348 34.3651 32.341 34.3651 32.341C34.3651 32.341 42.7503 33.4248 44.264 43.7469Z" fill="#0044C7"/>
<path id="Vector_5" d="M21.0133 31.2388C20.8283 31.5551 20.7195 31.9099 20.6953 32.2752C20.7051 32.4913 20.7567 32.7034 20.8472 32.9C21.1964 33.7047 21.7277 34.418 22.3995 34.9837C23.0713 35.5494 23.8654 35.9523 24.7194 36.1608C25.1807 36.3042 25.66 36.3822 26.143 36.3927C27.5904 36.3927 29.0188 35.4036 29.8872 33.8086C29.9396 33.7274 29.9721 33.635 29.9821 33.5389C29.9776 33.4144 29.9434 33.2927 29.8824 33.1839C29.3415 32.0244 29.4411 30.5241 29.5835 29.1611C29.612 29.0493 29.612 28.9322 29.5835 28.8203C29.5411 28.7376 29.4678 28.6747 29.3794 28.6452C28.4303 28.2524 27.4338 28.4985 26.4562 28.4559C25.0896 28.4039 23.7703 27.7791 22.4084 27.7744C21.801 27.7744 21.7535 28.0016 21.6681 28.7636C21.5848 29.6184 21.3637 30.4542 21.0133 31.2388Z" fill="#F7AF87"/>
<path id="Vector_6" d="M21.0508 27.3105C21.0508 27.3105 21.8338 30.3821 23.7367 32.3982C25.6396 34.4144 30.1525 34.031 29.621 32.2326C29.1749 30.7228 30.0149 27.3153 30.0149 27.3153L21.0508 27.3105Z" fill="url(#paint0_linear)"/>
<path id="Vector_7" d="M33.6065 21.5311C33.0038 26.5714 30.1898 30.722 25.9854 30.7173C21.7809 30.7126 18.369 26.5951 18.3927 21.5216C18.4164 16.4481 21.1071 10.7121 25.3115 10.7168C29.5159 10.7215 34.845 11.2232 33.6065 21.5311Z" fill="#F7AF87"/>
<path id="Vector_8" d="M16.6749 13.8407C16.6417 12.9509 16.6749 11.9476 17.2538 11.304C17.4091 11.161 17.549 11.0024 17.6714 10.8307C17.7702 10.6065 17.825 10.3655 17.8328 10.1208C18.0606 8.22768 19.4415 6.62329 21.0312 5.53949C22.7681 4.35647 24.7819 3.64082 26.8775 3.46182C27.5505 3.38989 28.2305 3.42021 28.8943 3.55174C29.5607 3.71267 30.2001 3.96934 30.7925 4.31371C31.7593 4.79641 32.6194 5.46747 33.3218 6.28726C33.6717 6.69771 33.9359 7.17371 34.0988 7.68734C34.2618 8.20096 34.3203 8.74187 34.2709 9.27835C34.7317 9.47599 35.1457 9.7682 35.4858 10.136C35.8259 10.5037 36.0846 10.9388 36.245 11.4128C36.5526 12.3993 36.6496 13.4392 36.5297 14.4654C36.3257 16.9075 35.386 19.4111 33.4309 20.8972C33.46 19.189 33.0759 17.4991 32.311 15.9704C32.02 15.4484 31.7571 14.9112 31.5233 14.3613C31.2999 13.7753 31.1919 13.1518 31.2054 12.525C30.3844 12.9604 29.9051 13.8502 29.1363 14.3613C28.6417 14.6592 28.0937 14.8585 27.5229 14.9482C25.6896 15.3078 23.7979 15.2414 21.9945 14.7541C21.2827 14.5601 20.3763 14.3566 19.9255 14.9434C19.7114 15.3473 19.6175 15.8038 19.655 16.2591C19.5938 16.7557 19.4744 17.2433 19.2991 17.7121L18.1839 21.0534C17.8328 20.7268 16.7413 15.8568 16.6749 13.8407Z" fill="#404040"/>
<path id="Vector_9" d="M17.7292 21.0301C17.6874 20.7288 17.6011 20.4353 17.473 20.1593C17.4426 20.1084 17.3981 20.0673 17.3448 20.041C17.3037 20.0287 17.2597 20.0294 17.2189 20.0429C17.1782 20.0565 17.1426 20.0822 17.1171 20.1167C17.0643 20.1854 17.0315 20.2673 17.0221 20.3533C16.9616 20.6837 16.9875 21.024 17.0972 21.3415C17.2069 21.659 17.3968 21.9429 17.6485 22.166C17.732 22.2448 17.8328 22.3031 17.9428 22.3363C17.9979 22.3505 18.0558 22.3501 18.1107 22.3352C18.1656 22.3202 18.2157 22.2913 18.256 22.2512C18.6641 21.7731 17.8384 21.4277 17.7292 21.0301Z" fill="url(#paint1_linear)"/>
<path id="Vector_10" d="M34.2085 20.8268C34.2548 20.5274 34.3426 20.2359 34.4695 19.9607C34.497 19.9064 34.5422 19.8631 34.5976 19.8376C34.6386 19.8262 34.6821 19.8278 34.722 19.8422C34.762 19.8566 34.7965 19.8832 34.8206 19.9181C34.8726 19.9855 34.9054 20.0656 34.9155 20.15C34.9769 20.4808 34.951 20.8218 34.8404 21.1395C34.7297 21.4573 34.5381 21.741 34.2844 21.9626C34.2034 22.0422 34.104 22.1008 33.9949 22.133C33.9398 22.1472 33.8819 22.1468 33.827 22.1318C33.7721 22.1169 33.722 22.0879 33.6817 22.0478C33.2594 21.5651 34.0851 21.2054 34.2085 20.8268Z" fill="url(#paint2_linear)"/>
</g>
<defs>
<linearGradient id="paint0_linear" x1="3097.62" y1="524.784" x2="3197.34" y2="327.943" gradientUnits="userSpaceOnUse">
<stop stop-opacity="0"/>
<stop offset="0.99"/>
</linearGradient>
<linearGradient id="paint1_linear" x1="469.2" y1="111.622" x2="485.924" y2="111.885" gradientUnits="userSpaceOnUse">
<stop stop-opacity="0"/>
<stop offset="0.99"/>
</linearGradient>
<linearGradient id="paint2_linear" x1="1504.89" y1="112.349" x2="1488.08" y2="112.623" gradientUnits="userSpaceOnUse">
<stop stop-opacity="0"/>
<stop offset="0.99"/>
</linearGradient>
</defs>
</svg>
