<svg width="34" height="34" viewBox="0 0 34 34" fill="none" xmlns="http://www.w3.org/2000/svg">
<g id="icon PGI Shipment">
<path id="Vector" d="M24.0837 11.333H28.3337L32.5837 17.079V25.4997H29.7007C29.5323 26.6816 28.9431 27.7631 28.0414 28.5454C27.1396 29.3278 25.9858 29.7585 24.792 29.7585C23.5981 29.7585 22.4444 29.3278 21.5426 28.5454C20.6409 27.7631 20.0517 26.6816 19.8832 25.4997H12.7007C12.5323 26.6816 11.9431 27.7631 11.0414 28.5454C10.1396 29.3278 8.98584 29.7585 7.79199 29.7585C6.59814 29.7585 5.44437 29.3278 4.54261 28.5454C3.64085 27.7631 3.05166 26.6816 2.88324 25.4997H1.41699V8.49967C1.41699 8.12395 1.56625 7.76362 1.83192 7.49794C2.0976 7.23226 2.45794 7.08301 2.83366 7.08301H22.667C23.0427 7.08301 23.4031 7.23226 23.6687 7.49794C23.9344 7.76362 24.0837 8.12395 24.0837 8.49967V11.333ZM24.0837 14.1663V18.4163H29.7503V18.0126L26.9057 14.1663H24.0837Z" fill="black"/>
</g>
</svg>
