<svg width="150" height="150" viewBox="0 0 150 150" fill="none" xmlns="http://www.w3.org/2000/svg">
<circle cx="75" cy="75" r="74" stroke="#0039A8" stroke-width="2"/>
<path opacity="0.18" d="M150 75.2943C149.922 95.1599 141.966 114.183 127.877 128.189C113.789 142.195 94.7189 150.039 74.8531 150C54.9874 149.961 35.9485 142.042 21.9151 127.981C7.88158 113.92 0 94.8657 0 75C0 55.1343 7.88158 36.08 21.9151 22.019C35.9485 7.95807 54.9874 0.039122 74.8531 0.000144566C94.7189 -0.0388328 113.789 7.80534 127.877 21.8111C141.966 35.8169 149.922 54.8401 150 74.7057V75.2943Z" fill="#0039A8"/>
<path d="M53.0029 54.329C52.3374 53.825 51.525 53.5517 50.6895 53.5508C50.1987 53.596 49.7276 53.7652 49.3206 54.0423C48.5555 54.5669 47.9368 55.2769 47.5225 56.1056C47.1082 56.9343 46.9121 57.8544 46.9524 58.7795C47.0499 60.6418 47.801 62.4106 49.0742 63.7762C49.5497 64.3718 50.1449 64.8617 50.8214 65.2144C51.498 65.567 52.2411 65.7747 53.0029 65.824C53.2702 65.824 53.5335 65.7584 53.7694 65.6329C53.9712 65.441 54.1274 65.2066 54.2269 64.9468C54.3264 64.687 54.3665 64.4084 54.3443 64.1312C54.4538 62.1107 54.577 60.1038 54.6865 58.0969C54.7961 56.0901 54.8782 55.4894 53.0029 54.329Z" fill="#F7AF87"/>
<path d="M96.6557 54.3153C97.3256 53.8215 98.136 53.5537 98.969 53.5508C99.4583 53.6027 99.9278 53.7713 100.338 54.0423C101.098 54.57 101.711 55.2814 102.121 56.1099C102.53 56.9384 102.722 57.8569 102.679 58.7795C102.584 60.6423 101.832 62.4119 100.557 63.7762C100.08 64.3693 99.4844 64.8566 98.8079 65.2069C98.1314 65.5572 97.389 65.7627 96.6283 65.8104C96.3595 65.8232 96.0929 65.7567 95.8617 65.6193C95.6592 65.4284 95.5033 65.1938 95.406 64.9335C95.3087 64.6731 95.2726 64.394 95.3005 64.1175C95.1773 62.1107 95.0678 60.0219 94.9583 58.0833C94.8488 56.1447 94.8351 55.4894 96.6557 54.3153Z" fill="#F7AF87"/>
<path d="M127.689 126.193V128.337C113.598 142.23 94.5789 150.015 74.7648 150C54.9507 149.985 35.9436 142.17 21.875 128.255V119.859C21.875 119.859 28.5003 95.121 51.4152 92.3223C74.33 89.5236 99.1339 93.2916 99.1339 93.2916C99.1339 93.2916 123.322 96.4179 127.689 126.193Z" fill="#0044C7"/>
<path d="M60.6125 90.1105C60.0789 91.0229 59.765 92.0464 59.6953 93.1004C59.7237 93.7236 59.8724 94.3355 60.1334 94.9024C61.1407 97.2239 62.6734 99.2813 64.6113 100.913C66.5492 102.545 68.8397 103.707 71.3033 104.309C72.6341 104.722 74.0164 104.947 75.4099 104.978C79.585 104.978 83.7053 102.124 86.2103 97.5236C86.3616 97.2893 86.4554 97.0227 86.4841 96.7455C86.471 96.3863 86.3725 96.0353 86.1966 95.7216C84.6361 92.3768 84.9236 88.0491 85.3342 84.1173C85.4165 83.7947 85.4165 83.4568 85.3342 83.1343C85.2119 82.8956 85.0006 82.7142 84.7456 82.6292C82.0079 81.4961 79.1333 82.206 76.3134 82.0831C72.3711 81.9329 68.5656 80.1308 64.6369 80.1172C62.8848 80.1172 62.7479 80.7725 62.5015 82.9705C62.2612 85.4364 61.6233 87.8474 60.6125 90.1105Z" fill="#F7AF87"/>
<path d="M60.7227 78.7793C60.7227 78.7793 62.9813 87.6395 68.4705 93.4553C73.9596 99.2711 86.9776 98.1653 85.4444 92.9775C84.1577 88.6225 86.5806 78.7929 86.5806 78.7929L60.7227 78.7793Z" fill="url(#paint0_linear)"/>
<path d="M96.9429 62.1101C95.2045 76.6496 87.0871 88.6225 74.9589 88.6089C62.8307 88.5952 52.9886 76.7179 53.057 62.0828C53.1254 47.4478 60.8869 30.9014 73.0151 30.915C85.1433 30.9287 100.516 32.3758 96.9429 62.1101Z" fill="#F7AF87"/>
<path d="M48.1018 39.9256C48.006 37.359 48.1018 34.4648 49.7718 32.6081C50.2197 32.1959 50.6234 31.7383 50.9764 31.2429C51.2613 30.5962 51.4193 29.9011 51.4418 29.1951C52.0989 23.7342 56.0823 19.1062 60.668 15.9798C65.6784 12.5673 71.4873 10.5029 77.5325 9.98655C79.4737 9.77907 81.4352 9.86653 83.3501 10.2459C85.2724 10.7101 87.1169 11.4505 88.8256 12.4439C91.6146 13.8363 94.0955 15.7721 96.1217 18.1369C97.131 19.3209 97.893 20.6939 98.3631 22.1756C98.8332 23.6572 99.002 25.2175 98.8594 26.765C100.189 27.3351 101.383 28.1781 102.364 29.2389C103.345 30.2997 104.091 31.5547 104.554 32.9221C105.441 35.7679 105.721 38.7675 105.375 41.7277C104.787 48.7722 102.076 55.9942 96.4365 60.281C96.5204 55.3536 95.4123 50.4786 93.206 46.0691C92.3666 44.5631 91.6081 43.0137 90.9337 41.4274C90.2893 39.737 89.9779 37.9384 90.0166 36.1304C87.6484 37.3864 86.2658 39.953 84.0483 41.4274C82.6213 42.2867 81.0407 42.8616 79.3941 43.1202C74.1058 44.1578 68.6489 43.9663 63.4468 42.5605C61.3935 42.0008 58.779 41.4137 57.4785 43.1066C56.8608 44.2716 56.59 45.5885 56.6983 46.9019C56.5218 48.3342 56.1772 49.7409 55.6716 51.0931L52.4548 60.7315C51.4419 59.7895 48.2934 45.7414 48.1018 39.9256Z" fill="#404040"/>
<path d="M51.1395 60.6627C51.019 59.7935 50.7699 58.947 50.4003 58.1507C50.3126 58.0038 50.1843 57.8853 50.0307 57.8094C49.9119 57.774 49.7851 57.7759 49.6675 57.815C49.55 57.8541 49.4473 57.9284 49.3737 58.0278C49.2215 58.2261 49.1268 58.4622 49.0999 58.7104C48.9253 59.6634 48.9999 60.6451 49.3163 61.561C49.6328 62.4768 50.1806 63.2959 50.9068 63.9392C51.1476 64.1665 51.4382 64.3348 51.7555 64.4307C51.9145 64.4716 52.0815 64.4704 52.2399 64.4273C52.3983 64.3842 52.5428 64.3007 52.6589 64.1849C53.8362 62.8061 51.4543 61.8095 51.1395 60.6627Z" fill="url(#paint1_linear)"/>
<path d="M98.6818 60.0762C98.8153 59.2126 99.0687 58.3718 99.4346 57.5779C99.5142 57.4214 99.6444 57.2963 99.8042 57.2229C99.9224 57.1899 100.048 57.1946 100.163 57.2362C100.279 57.2778 100.378 57.3543 100.448 57.455C100.597 57.6494 100.692 57.8805 100.721 58.124C100.898 59.0781 100.824 60.0618 100.504 60.9785C100.185 61.8952 99.6327 62.7133 98.9008 63.3527C98.6671 63.5824 98.3803 63.7512 98.0658 63.8442C97.9067 63.8851 97.7398 63.884 97.5814 63.8409C97.4229 63.7978 97.2785 63.7142 97.1623 63.5985C95.944 62.206 98.3259 61.1684 98.6818 60.0762Z" fill="url(#paint2_linear)"/>
<circle cx="128" cy="122" r="17" fill="#FF73E0"/>
<path d="M128.675 118.143L131.857 121.325L124.431 128.75H121.25V125.567L128.675 118.142V118.143ZM129.736 117.083L131.326 115.491C131.467 115.35 131.658 115.271 131.857 115.271C132.055 115.271 132.246 115.35 132.387 115.491L134.508 117.613C134.649 117.753 134.728 117.944 134.728 118.143C134.728 118.342 134.649 118.533 134.508 118.673L132.917 120.264L129.736 117.083Z" fill="white"/>
<defs>
<linearGradient id="paint0_linear" x1="8935.44" y1="1513.8" x2="9223.09" y2="945.989" gradientUnits="userSpaceOnUse">
<stop stop-opacity="0"/>
<stop offset="0.99"/>
</linearGradient>
<linearGradient id="paint1_linear" x1="1353.46" y1="321.987" x2="1401.7" y2="322.745" gradientUnits="userSpaceOnUse">
<stop stop-opacity="0"/>
<stop offset="0.99"/>
</linearGradient>
<linearGradient id="paint2_linear" x1="4341.04" y1="324.082" x2="4292.54" y2="324.873" gradientUnits="userSpaceOnUse">
<stop stop-opacity="0"/>
<stop offset="0.99"/>
</linearGradient>
</defs>
</svg>
